<svg width="58" height="70" viewBox="0 0 58 70" fill="none" xmlns="http://www.w3.org/2000/svg">
<g filter="url(#filter0_dd_2_150)">
<path fill-rule="evenodd" clip-rule="evenodd" d="M28.8605 55.2308C40.1514 55.2308 49.3045 46.0777 49.3045 34.7868C49.3045 23.4959 40.1514 14.3428 28.8605 14.3428C17.5696 14.3428 8.4165 23.4959 8.4165 34.7868C8.4165 46.0777 17.5696 55.2308 28.8605 55.2308Z" fill="white"/>
<path d="M48.0779 34.7868C48.0779 45.4003 39.474 54.0042 28.8605 54.0042C18.2471 54.0042 9.64315 45.4003 9.64315 34.7868C9.64315 24.1733 18.2471 15.5694 28.8605 15.5694C39.474 15.5694 48.0779 24.1733 48.0779 34.7868Z" stroke="white" stroke-width="2.45328"/>
</g>
<path d="M32.0253 33.1031C32.3776 33.1031 32.6632 32.8175 32.6632 32.4652C32.6632 32.113 32.3776 31.8274 32.0253 31.8274C31.673 31.8274 31.3875 32.113 31.3875 32.4652C31.3875 32.8175 31.673 33.1031 32.0253 33.1031Z" fill="#0A142F"/>
<path fill-rule="evenodd" clip-rule="evenodd" d="M26.6129 35.1946C26.6129 36.6603 27.8049 37.8523 29.2706 37.8523C30.7364 37.8523 31.9284 36.6603 31.9284 35.1946C31.9284 33.7289 30.7364 32.5369 29.2706 32.5369C27.8049 32.5369 26.6129 33.7289 26.6129 35.1946ZM27.9426 35.1947C27.9426 34.4618 28.5386 33.8658 29.2715 33.8658C30.0044 33.8658 30.6004 34.4618 30.6004 35.1947C30.6004 35.9276 30.0044 36.5235 29.2715 36.5235C28.5386 36.5235 27.9426 35.9276 27.9426 35.1947Z" fill="#0A142F"/>
<path fill-rule="evenodd" clip-rule="evenodd" d="M26.6128 40.51H31.9282C33.2943 40.51 34.586 39.2184 34.586 37.8523V32.5369C34.586 31.1708 33.2943 29.8792 31.9282 29.8792H26.6128C25.2467 29.8792 23.9551 31.1708 23.9551 32.5369V37.8523C23.9551 39.2184 25.2467 40.51 26.6128 40.51ZM25.2847 32.5369C25.2847 31.9156 25.9923 31.208 26.6136 31.208H31.929C32.5502 31.208 33.2579 31.9156 33.2579 32.5369V37.8523C33.2579 38.4735 32.5502 39.1812 31.929 39.1812H26.6136C25.9804 39.1812 25.2847 38.4855 25.2847 37.8523V32.5369Z" fill="#0A142F"/>
<defs>
<filter id="filter0_dd_2_150" x="0.238895" y="0.440839" width="57.2433" height="68.6919" filterUnits="userSpaceOnUse" color-interpolation-filters="sRGB">
<feFlood flood-opacity="0" result="BackgroundImageFix"/>
<feColorMatrix in="SourceAlpha" type="matrix" values="0 0 0 0 0 0 0 0 0 0 0 0 0 0 0 0 0 0 127 0" result="hardAlpha"/>
<feOffset dy="5.72433"/>
<feGaussianBlur stdDeviation="4.0888"/>
<feColorMatrix type="matrix" values="0 0 0 0 0.294118 0 0 0 0 0.294118 0 0 0 0 0.294118 0 0 0 0.1 0"/>
<feBlend mode="normal" in2="BackgroundImageFix" result="effect1_dropShadow_2_150"/>
<feColorMatrix in="SourceAlpha" type="matrix" values="0 0 0 0 0 0 0 0 0 0 0 0 0 0 0 0 0 0 127 0" result="hardAlpha"/>
<feOffset dy="-5.72433"/>
<feGaussianBlur stdDeviation="4.0888"/>
<feColorMatrix type="matrix" values="0 0 0 0 0.294118 0 0 0 0 0.294118 0 0 0 0 0.294118 0 0 0 0.01 0"/>
<feBlend mode="normal" in2="effect1_dropShadow_2_150" result="effect2_dropShadow_2_150"/>
<feBlend mode="normal" in="SourceGraphic" in2="effect2_dropShadow_2_150" result="shape"/>
</filter>
</defs>
</svg>
