<svg width="21" height="22" viewBox="0 0 21 22" fill="none" xmlns="http://www.w3.org/2000/svg">
<path fill-rule="evenodd" clip-rule="evenodd" d="M3.30037 10.1263C-1.0998 4.62631 2.20004 0.776368 5.50002 0.22631C8.8 -0.323749 9.90061 1.32631 11.0006 2.97631C12.1002 1.32631 13.2 -0.323749 16.5002 0.22631C19.8004 0.776368 23.65 5.17637 14.85 13.9764C14.85 13.9764 14.6079 12.9534 12.1 12.3264C10.6935 11.9747 9.8383 11.474 9.06085 11.0187C8.45207 10.6622 7.89093 10.3336 7.15 10.1264C5.46287 9.65448 4.62041 9.79118 3.30037 10.1263ZM0 17.2764V13.4264C0.55 12.693 2.2 11.2264 4.4 11.2264C6.51628 11.2264 7.38556 11.7429 8.38279 12.3354C8.68142 12.5128 8.99151 12.6971 9.35 12.8764C10.45 13.4264 11.55 13.793 12.1 13.9764C13.2 14.5264 12.65 16.1764 11 15.6264L7.7 14.5264C6.875 14.2514 6.6 14.5264 6.6 14.5264C6.05 15.0764 6.325 16.1764 7.7 16.7264C10.45 17.8264 11.55 17.8264 12.65 17.2764L19.25 13.9764C19.25 13.9764 19.8 13.9764 19.8 15.0764C19.8 16.1764 18.7 16.7264 18.7 16.7264L13.2 20.0264C13.2 20.0264 11 21.1264 9.9 21.1264C8.8 21.1264 7.7 20.5764 7.7 20.5764L0 17.2764Z" fill="white"/>
</svg>
