<svg width="81" height="13" viewBox="0 0 81 13" fill="none" xmlns="http://www.w3.org/2000/svg">
<path d="M0.280479 12.545V1.34186H3.46798C4.43673 1.34186 5.20496 1.57884 5.77267 2.0528C6.34038 2.52675 6.62423 3.14394 6.62423 3.90436C6.62423 4.53977 6.45235 5.09186 6.1086 5.56061C5.76485 6.02936 5.2909 6.36269 4.68673 6.56061V6.59186C5.44194 6.6804 6.0461 6.96686 6.49923 7.45123C6.95235 7.9304 7.17892 8.5554 7.17892 9.32623C7.17892 10.2846 6.83517 11.0606 6.14767 11.6544C5.46017 12.2481 4.59298 12.545 3.5461 12.545H0.280479ZM1.59298 2.52936V6.14655H2.93673C3.65548 6.14655 4.22058 5.97467 4.63204 5.63092C5.0435 5.28196 5.24923 4.79238 5.24923 4.16217C5.24923 3.07363 4.53308 2.52936 3.10079 2.52936H1.59298ZM1.59298 7.32623V11.3575H3.37423C4.14506 11.3575 4.74142 11.1752 5.16329 10.8106C5.59038 10.446 5.80392 9.94602 5.80392 9.31061C5.80392 7.98769 4.90288 7.32623 3.10079 7.32623H1.59298ZM12.6242 12.7325C11.4419 12.7325 10.4966 12.3601 9.78829 11.6153C9.08517 10.8653 8.7336 9.87311 8.7336 8.63873C8.7336 7.29498 9.10079 6.2455 9.83517 5.4903C10.5695 4.73509 11.5617 4.35748 12.8117 4.35748C14.0044 4.35748 14.9341 4.72467 15.6008 5.45905C16.2727 6.19342 16.6086 7.21165 16.6086 8.51373C16.6086 9.78977 16.2466 10.8132 15.5227 11.584C14.8039 12.3497 13.8378 12.7325 12.6242 12.7325ZM12.718 5.43561C11.8951 5.43561 11.244 5.71686 10.7649 6.27936C10.2857 6.83665 10.0461 7.60748 10.0461 8.59186C10.0461 9.53977 10.2883 10.2872 10.7727 10.834C11.257 11.3809 11.9055 11.6544 12.718 11.6544C13.5461 11.6544 14.1815 11.3861 14.6242 10.8497C15.0721 10.3132 15.2961 9.55019 15.2961 8.56061C15.2961 7.56061 15.0721 6.78977 14.6242 6.24811C14.1815 5.70644 13.5461 5.43561 12.718 5.43561ZM21.9992 12.7325C20.8169 12.7325 19.8716 12.3601 19.1633 11.6153C18.4602 10.8653 18.1086 9.87311 18.1086 8.63873C18.1086 7.29498 18.4758 6.2455 19.2102 5.4903C19.9445 4.73509 20.9367 4.35748 22.1867 4.35748C23.3794 4.35748 24.3091 4.72467 24.9758 5.45905C25.6477 6.19342 25.9836 7.21165 25.9836 8.51373C25.9836 9.78977 25.6216 10.8132 24.8977 11.584C24.1789 12.3497 23.2128 12.7325 21.9992 12.7325ZM22.093 5.43561C21.2701 5.43561 20.619 5.71686 20.1399 6.27936C19.6607 6.83665 19.4211 7.60748 19.4211 8.59186C19.4211 9.53977 19.6633 10.2872 20.1477 10.834C20.632 11.3809 21.2805 11.6544 22.093 11.6544C22.9211 11.6544 23.5565 11.3861 23.9992 10.8497C24.4471 10.3132 24.6711 9.55019 24.6711 8.56061C24.6711 7.56061 24.4471 6.78977 23.9992 6.24811C23.5565 5.70644 22.9211 5.43561 22.093 5.43561ZM34.6711 12.545H32.8742L29.343 8.70123H29.3117V12.545H28.0305V0.701233H29.3117V8.20905H29.343L32.7024 4.54498H34.382L30.6711 8.40436L34.6711 12.545ZM47.1711 2.52936H43.9367V12.545H42.6242V2.52936H39.3977V1.34186H47.1711V2.52936ZM49.4211 2.51373C49.1919 2.51373 48.9966 2.43561 48.8352 2.27936C48.6737 2.12311 48.593 1.92519 48.593 1.68561C48.593 1.44602 48.6737 1.24811 48.8352 1.09186C48.9966 0.9304 49.1919 0.84967 49.4211 0.84967C49.6555 0.84967 49.8534 0.9304 50.0149 1.09186C50.1815 1.24811 50.2649 1.44602 50.2649 1.68561C50.2649 1.91477 50.1815 2.11009 50.0149 2.27155C49.8534 2.433 49.6555 2.51373 49.4211 2.51373ZM50.0461 12.545H48.7649V4.54498H50.0461V12.545ZM58.093 12.1778C57.4784 12.5476 56.7492 12.7325 55.9055 12.7325C54.7649 12.7325 53.843 12.3627 53.1399 11.6231C52.4419 10.8783 52.093 9.91477 52.093 8.73248C52.093 7.41477 52.4706 6.35748 53.2258 5.56061C53.981 4.75852 54.9888 4.35748 56.2492 4.35748C56.9524 4.35748 57.5721 4.48769 58.1086 4.74811V6.06061C57.5149 5.64394 56.8794 5.43561 56.2024 5.43561C55.3846 5.43561 54.7128 5.72988 54.1867 6.31842C53.6659 6.90175 53.4055 7.66998 53.4055 8.62311C53.4055 9.56061 53.6503 10.3002 54.1399 10.8419C54.6346 11.3835 55.2961 11.6544 56.1242 11.6544C56.8221 11.6544 57.4784 11.4226 58.093 10.959V12.1778ZM66.6711 12.545H64.8742L61.343 8.70123H61.3117V12.545H60.0305V0.701233H61.3117V8.20905H61.343L64.7024 4.54498H66.382L62.6711 8.40436L66.6711 12.545ZM74.4133 8.8653H68.7649C68.7857 9.75592 69.0253 10.4434 69.4836 10.9278C69.9419 11.4122 70.5721 11.6544 71.3742 11.6544C72.2753 11.6544 73.1034 11.3575 73.8586 10.7637V11.9669C73.1555 12.4773 72.2258 12.7325 71.0695 12.7325C69.9393 12.7325 69.0513 12.3705 68.4055 11.6465C67.7596 10.9174 67.4367 9.89394 67.4367 8.57623C67.4367 7.33144 67.7883 6.31842 68.4914 5.53717C69.1998 4.75071 70.0774 4.35748 71.1242 4.35748C72.1711 4.35748 72.981 4.69602 73.5539 5.37311C74.1268 6.05019 74.4133 6.9903 74.4133 8.19342V8.8653ZM73.1008 7.77936C73.0956 7.03977 72.9159 6.46425 72.5617 6.0528C72.2128 5.64134 71.7258 5.43561 71.1008 5.43561C70.4966 5.43561 69.9836 5.65175 69.5617 6.08405C69.1399 6.51634 68.8794 7.08144 68.7805 7.77936H73.1008ZM80.0695 12.4669C79.7675 12.6335 79.369 12.7169 78.8742 12.7169C77.4732 12.7169 76.7727 11.9356 76.7727 10.3731V5.63873H75.3977V4.54498H76.7727V2.59186L78.0539 2.1778V4.54498H80.0695V5.63873H78.0539V10.1465C78.0539 10.683 78.1451 11.0658 78.3274 11.295C78.5096 11.5241 78.8117 11.6387 79.2336 11.6387C79.5565 11.6387 79.8352 11.5502 80.0695 11.3731V12.4669Z" fill="#565453"/>
</svg>
