<svg width="58" height="70" viewBox="0 0 58 70" fill="none" xmlns="http://www.w3.org/2000/svg">
<g filter="url(#filter0_dd_2_160)">
<path fill-rule="evenodd" clip-rule="evenodd" d="M29.277 55.2308C40.5679 55.2308 49.7211 46.0777 49.7211 34.7868C49.7211 23.4959 40.5679 14.3428 29.277 14.3428C17.9861 14.3428 8.83301 23.4959 8.83301 34.7868C8.83301 46.0777 17.9861 55.2308 29.277 55.2308Z" fill="white"/>
<path d="M48.4944 34.7868C48.4944 45.4003 39.8905 54.0042 29.277 54.0042C18.6636 54.0042 10.0596 45.4003 10.0596 34.7868C10.0596 24.1733 18.6636 15.5694 29.277 15.5694C39.8905 15.5694 48.4944 24.1733 48.4944 34.7868Z" stroke="white" stroke-width="2.45328"/>
</g>
<path d="M35.2341 30.9833C34.796 31.204 34.3579 31.2776 33.8468 31.3511C34.3579 31.0569 34.723 30.6155 34.869 30.027C34.4309 30.3213 33.9198 30.4684 33.3357 30.6155C32.8976 30.1741 32.2405 29.8799 31.5833 29.8799C30.3421 29.8799 29.2469 30.9833 29.2469 32.3075C29.2469 32.5281 29.2469 32.6753 29.3199 32.8224C27.3485 32.7488 25.5231 31.7925 24.3549 30.3213C24.1359 30.6891 24.0629 31.0569 24.0629 31.5718C24.0629 32.381 24.5009 33.1166 25.1581 33.558C24.793 33.558 24.4279 33.4109 24.0629 33.2638C24.0629 34.4408 24.866 35.3971 25.9612 35.6178C25.7422 35.6913 25.5231 35.6913 25.3041 35.6913C25.1581 35.6913 25.012 35.6913 24.866 35.6178C25.1581 36.5741 26.0342 37.3097 27.1295 37.3097C26.3263 37.9718 25.3041 38.3396 24.1359 38.3396C23.9168 38.3396 23.7708 38.3396 23.5518 38.3396C24.647 39.0017 25.8882 39.443 27.2025 39.443C31.5833 39.443 33.9928 35.7649 33.9928 32.6017C33.9928 32.5281 33.9928 32.381 33.9928 32.3075C34.5039 31.9396 34.942 31.4983 35.2341 30.9833Z" fill="#0A142F"/>
<defs>
<filter id="filter0_dd_2_160" x="0.655399" y="0.440839" width="57.2433" height="68.6919" filterUnits="userSpaceOnUse" color-interpolation-filters="sRGB">
<feFlood flood-opacity="0" result="BackgroundImageFix"/>
<feColorMatrix in="SourceAlpha" type="matrix" values="0 0 0 0 0 0 0 0 0 0 0 0 0 0 0 0 0 0 127 0" result="hardAlpha"/>
<feOffset dy="5.72433"/>
<feGaussianBlur stdDeviation="4.0888"/>
<feColorMatrix type="matrix" values="0 0 0 0 0.294118 0 0 0 0 0.294118 0 0 0 0 0.294118 0 0 0 0.1 0"/>
<feBlend mode="normal" in2="BackgroundImageFix" result="effect1_dropShadow_2_160"/>
<feColorMatrix in="SourceAlpha" type="matrix" values="0 0 0 0 0 0 0 0 0 0 0 0 0 0 0 0 0 0 127 0" result="hardAlpha"/>
<feOffset dy="-5.72433"/>
<feGaussianBlur stdDeviation="4.0888"/>
<feColorMatrix type="matrix" values="0 0 0 0 0.294118 0 0 0 0 0.294118 0 0 0 0 0.294118 0 0 0 0.01 0"/>
<feBlend mode="normal" in2="effect1_dropShadow_2_160" result="effect2_dropShadow_2_160"/>
<feBlend mode="normal" in="SourceGraphic" in2="effect2_dropShadow_2_160" result="shape"/>
</filter>
</defs>
</svg>
