<svg width="17" height="11" viewBox="0 0 17 11" fill="none" xmlns="http://www.w3.org/2000/svg">
<path d="M5.66006 5.26757C6.34539 5.26757 7.00805 5.00678 7.52671 4.53348C8.03104 4.07184 8.33904 3.45621 8.39338 2.80053C8.45138 2.1011 8.20104 1.45792 7.68871 0.989168C7.17638 0.520419 6.46005 0.267578 5.66006 0.267578C4.86573 0.267578 4.1474 0.524964 3.63673 0.992577C3.12107 1.46474 2.87007 2.10678 2.92807 2.80025C2.98374 3.45678 3.2914 4.07212 3.79473 4.5332C4.31206 5.00678 4.97439 5.26757 5.66006 5.26757ZM1.26575 10.2676H10.054C10.1953 10.2682 10.3349 10.2412 10.462 10.1887C10.5892 10.1361 10.7005 10.0594 10.7874 9.96444C10.8795 9.86149 10.9432 9.74211 10.9735 9.61523C11.0039 9.48835 11.0002 9.35726 10.9627 9.23177C10.682 8.27126 9.9867 7.47467 8.95204 6.92837C8.03371 6.44371 6.86472 6.17666 5.66006 6.17666C4.43173 6.17666 3.2934 6.43234 2.36974 6.91672C1.33275 7.46018 0.636415 8.26132 0.357083 9.23348C0.320038 9.35906 0.316744 9.49014 0.34745 9.61696C0.378156 9.74377 0.442068 9.86304 0.534416 9.96586C0.621216 10.0604 0.732251 10.1367 0.859017 10.189C0.985783 10.2413 1.12491 10.2682 1.26575 10.2676ZM11.96 5.38121C13.133 5.38121 14.1643 4.45166 14.26 3.30934C14.3073 2.72411 14.0933 2.18292 13.66 1.78604C13.2314 1.39314 12.6267 1.17667 11.96 1.17667C11.2934 1.17667 10.6934 1.39428 10.2624 1.78945C9.8257 2.18945 9.61237 2.72951 9.66237 3.3099C9.75804 4.45195 10.789 5.38121 11.96 5.38121ZM9.77137 6.27467C10.3577 6.03036 11.1187 5.9082 11.9597 5.9082C12.9417 5.9082 13.8953 6.12638 14.6453 6.5224C15.4957 6.97212 16.0677 7.62695 16.2987 8.41757C16.3325 8.53129 16.3357 8.65005 16.308 8.76497C16.2804 8.87989 16.2226 8.988 16.139 9.0812C16.0597 9.16798 15.9581 9.23811 15.842 9.28617C15.7259 9.33424 15.5984 9.35898 15.4693 9.35848H11.7694C11.7069 9.35847 11.6464 9.33978 11.5985 9.30567C11.5506 9.27156 11.5182 9.2242 11.507 9.17183C11.5034 9.15393 11.4987 9.13603 11.4934 9.11842C11.2107 8.15081 10.5484 7.3332 9.5697 6.73717C9.53371 6.71506 9.50476 6.68564 9.48547 6.65158C9.46619 6.61752 9.45718 6.5799 9.45926 6.54212C9.46135 6.50435 9.47446 6.46761 9.49741 6.43525C9.52037 6.40288 9.55243 6.37591 9.5907 6.35678C9.64304 6.33064 9.70304 6.30308 9.77137 6.27467Z" fill="black" fill-opacity="0.79"/>
</svg>
